<svg height="512pt" viewBox="0 -4 512.00059 512" width="512pt" xmlns="http://www.w3.org/2000/svg"><path d="m275.128906 61.375-255.894531 68.566406c-13.839844 3.707032-22.050781 17.933594-18.34375 31.773438l86.6875 323.523437c3.707031 13.835938 17.933594 22.050781 31.773437 18.34375l255.894532-68.570312c13.839844-3.707031 22.050781-17.929688 18.34375-31.769531l-86.6875-323.523438c-3.707032-13.839844-17.933594-22.054688-31.773438-18.34375zm0 0" fill="#eaeaea"/><path d="m127.667969 474.496094-86.6875-323.523438c-3.707031-13.839844 4.503906-28.066406 18.34375-31.773437l-40.089844 10.742187c-13.839844 3.707032-22.050781 17.933594-18.34375 31.773438l86.6875 323.523437c3.707031 13.835938 17.933594 22.050781 31.773437 18.34375l40.089844-10.742187c-13.839844 3.707031-28.066406-4.507813-31.773437-18.34375zm0 0" fill="#d8d7da"/><path d="m341.992188 371.027344-63.667969-237.613282c-15.941407 4.273438-32.328125-5.1875-36.597657-21.128906l-168.105468 45.042969c4.269531 15.941406-5.191406 32.324219-21.128906 36.597656l63.667968 237.613281c15.9375-4.269531 32.324219 5.191407 36.597656 21.128907l168.105469-45.042969c-4.273437-15.941406 5.1875-32.324219 21.128907-36.597656zm0 0" fill="#f46262"/><path d="m152.753906 452.667969 11.226563-3.007813-79.132813-295.339844-11.226562 3.007813c4.269531 15.941406-5.191406 32.328125-21.128906 36.597656l63.667968 237.613281c15.9375-4.269531 32.324219 5.191407 36.59375 21.128907zm0 0" fill="#d65b5b"/><path d="m492.765625 69.457031-255.894531-68.566406c-13.839844-3.707031-28.066406 4.503906-31.773438 18.34375l-86.6875 323.523437c-3.707031 13.839844 4.503906 28.066407 18.34375 31.773438l255.894532 68.566406c13.839843 3.707032 28.066406-4.503906 31.773437-18.34375l86.6875-323.523437c3.707031-13.839844-4.503906-28.066407-18.34375-31.773438zm0 0" fill="#eaeaea"/><path d="m158.5 353.5 86.6875-323.523438c3.707031-13.839843 17.933594-22.050781 31.773438-18.34375l-40.089844-10.742187c-13.839844-3.707031-28.066406 4.503906-31.773438 18.34375l-86.6875 323.523437c-3.707031 13.839844 4.503906 28.066407 18.34375 31.773438l40.089844 10.742188c-13.839844-3.707032-22.050781-17.933594-18.34375-31.773438zm0 0" fill="#d8d7da"/><g fill="#f46262"><path d="m218.398438 91.570312c.03125-.121093.171874-.410156.414062-.867187l30.820312-49.175781c.628907-.984375 1.691407-1.589844 3.183594-1.824219 1.492188-.230469 3.089844-.117187 4.792969.339844 1.707031.457031 3.152344 1.195312 4.339844 2.214843 1.1875 1.019532 1.792969 2.167969 1.8125 3.453126l2.085937 58c-.007812.484374-.027344.785156-.058594.898437-.335937 1.25-1.390624 2.125-3.167968 2.621094-1.777344.496093-3.460938.53125-5.050782.105469-2.101562-.5625-3.15625-1.632813-3.15625-3.21875l-.199218-12.199219-18.253906-4.890625-6.214844 10.488281c-.84375 1.351563-2.449219 1.710937-4.816406 1.074219-1.855469-.496094-3.5-1.441406-4.9375-2.835938-1.4375-1.390625-1.96875-2.789062-1.59375-4.183594zm22.324218-12.582031 14.734375 3.945313-.40625-28.144532zm0 0"/><path d="m411.121094 352.417969c-.03125.121093-.171875.410156-.414063.863281l-30.820312 49.179688c-.628907.984374-1.6875 1.589843-3.183594 1.820312-1.492187.230469-3.089844.121094-4.792969-.335938-1.703125-.457031-3.152344-1.195312-4.339844-2.214843s-1.792968-2.167969-1.8125-3.453125l-2.085937-58c.011719-.488282.03125-.785156.058594-.898438.335937-1.25 1.390625-2.125 3.167969-2.621094 1.777343-.5 3.460937-.535156 5.050781-.109374 2.105469.5625 3.15625 1.636718 3.15625 3.222656l.199219 12.199218 18.257812 4.890626 6.210938-10.488282c.84375-1.351562 2.449218-1.710937 4.816406-1.078125 1.855468.5 3.503906 1.441407 4.9375 2.835938 1.4375 1.394531 1.96875 2.792969 1.59375 4.1875zm-22.320313 12.582031-14.734375-3.949219.402344 28.144531zm0 0"/><path d="m390.484375 188.65625c-10.054687-17.417969-32.324219-23.386719-49.742187-13.328125l-15.945313 9.203125-9.203125-15.945312c-10.054688-17.414063-32.328125-23.382813-49.746094-13.328126-17.414062 10.058594-23.382812 32.328126-13.328125 49.746094l9.207031 15.941406 34.304688 59.421876c1.167969 2.015624 3.746094 2.707031 5.761719 1.542968l59.421875-34.304687 15.945312-9.203125c17.414063-10.058594 23.382813-32.328125 13.324219-49.746094zm0 0"/></g><path d="m293.796875 229.539062-9.203125-15.941406c-10.058594-17.417968-4.089844-39.691406 13.328125-49.746094 3.378906-1.949218 6.941406-3.289062 10.558594-4.066406-11.40625-10.320312-28.59375-12.628906-42.632813-4.527344-17.414062 10.058594-23.382812 32.328126-13.328125 49.746094l9.207031 15.945313 34.304688 59.417969c1.167969 2.019531 3.746094 2.710937 5.761719 1.546874l16.679687-9.632812zm0 0" fill="#d65b5b"/></svg>